<?xml version="1.0" encoding="UTF-8"?>
<svg width="21px" height="16px" viewBox="0 0 21 16" version="1.1" xmlns="http://www.w3.org/2000/svg" xmlns:xlink="http://www.w3.org/1999/xlink">
    <!-- Generator: Sketch 50.2 (55047) - http://www.bohemiancoding.com/sketch -->
    <title>book</title>
    <desc>Created with Sketch.</desc>
    <defs></defs>
    <g id="Page-1" stroke="none" stroke-width="1" fill="none" fill-rule="evenodd">
        <g id="book" fill="#EBF0F3" fill-rule="nonzero">
            <path d="M3.21236364,0.00345374449 C3.21179798,0.00345374449 3.21116162,0.00345374449 3.21059596,0.00345374449 C3.0119798,0.00345374449 2.82517172,0.0806343612 2.68411111,0.220898678 C2.54149495,0.362713656 2.46293939,0.55154185 2.46293939,0.752563877 L2.46293939,11.9853392 C2.46293939,12.3972511 2.80042424,12.7331806 3.21533333,12.7342379 C4.96448485,12.7383965 7.8950101,13.101815 9.91666667,15.2107841 L9.91666667,3.45536564 C9.91666667,3.31573568 9.88088889,3.18456388 9.81336364,3.07601762 C8.15408081,0.412264317 4.96547475,0.00754185022 3.21236364,0.00345374449 Z" id="Shape"></path>
            <path d="M18.5370606,11.9853392 L18.5370606,0.752493392 C18.5370606,0.551471366 18.4585051,0.362643172 18.3158889,0.220828194 C18.1748283,0.0805638767 17.9878788,0.00338325991 17.7894747,0.00338325991 C17.7888384,0.00338325991 17.788202,0.00338325991 17.7876364,0.00338325991 C16.034596,0.00754185022 12.8459899,0.412264317 11.1866364,3.07601762 C11.1191111,3.18456388 11.083404,3.31573568 11.083404,3.45536564 L11.083404,15.2107137 C13.1050606,13.1017445 16.0355859,12.738326 17.7847374,12.7341674 C18.1995758,12.7331101 18.5370606,12.3971806 18.5370606,11.9853392 Z" id="Shape"></path>
            <path d="M20.248596,2.59390308 L19.7037273,2.59390308 L19.7037273,11.9853392 C19.7037273,13.0370396 18.8441414,13.8946256 17.7874949,13.8972335 C16.3038485,13.9007577 13.8575253,14.1899559 12.1249899,15.8245639 C15.1214141,15.0932159 18.2801818,15.5686344 20.0803838,15.9775859 C20.3051616,16.0286167 20.5374343,15.9758943 20.7175253,15.8328106 C20.8969798,15.6900793 20.9999293,15.4767225 20.9999293,15.2477181 L20.9999293,3.34287225 C21,2.92990308 20.6628687,2.59390308 20.248596,2.59390308 Z" id="Shape"></path>
            <path d="M1.29620202,11.9853392 L1.29620202,2.59390308 L0.751333333,2.59390308 C0.337131313,2.59390308 0,2.92990308 0,3.34287225 L0,15.2475066 C0,15.4765815 0.102949495,15.6898678 0.28240404,15.8325991 C0.462353535,15.9756123 0.694414141,16.0285463 0.919545455,15.9773744 C2.71974747,15.5683524 5.87858586,15.0930044 8.87486869,15.8243524 C7.14240404,14.189815 4.69608081,13.9006872 3.21243434,13.897163 C2.15585859,13.8946256 1.29620202,13.0370396 1.29620202,11.9853392 Z" id="Shape"></path>
        </g>
    </g>
</svg>