<?xml version="1.0" encoding="UTF-8"?>
<svg width="14px" height="14px" viewBox="0 0 14 14" version="1.1" xmlns="http://www.w3.org/2000/svg" xmlns:xlink="http://www.w3.org/1999/xlink">
    <!-- Generator: Sketch 50.2 (55047) - http://www.bohemiancoding.com/sketch -->
    <title>del</title>
    <desc>Created with Sketch.</desc>
    <defs></defs>
    <g id="Page-1" stroke="none" stroke-width="1" fill="none" fill-rule="evenodd">
        <path d="M6.99874844,0 C3.13341677,0 0,3.13441802 0,7.00025031 C0,10.865582 3.13341677,14 6.99874844,14 C10.8660826,14 14,10.8650814 14,7.00025031 C14,3.13441802 10.8660826,0 6.99874844,0 Z M10.0085106,8.89561952 L8.89361702,10.0090113 C8.89361702,10.0090113 7.12991239,8.11664581 6.99824781,8.11664581 C6.86858573,8.11664581 5.10438048,10.0090113 5.10438048,10.0090113 L3.98898623,8.89561952 C3.98898623,8.89561952 5.88335419,7.15744681 5.88335419,7.00275344 C5.88335419,6.84555695 3.98898623,5.1068836 3.98898623,5.1068836 L5.10438048,3.99098874 C5.10438048,3.99098874 6.88310388,5.88435544 6.99824781,5.88435544 C7.11439299,5.88435544 8.89361702,3.99098874 8.89361702,3.99098874 L10.0085106,5.1068836 C10.0085106,5.1068836 8.11364205,6.87058824 8.11364205,7.00275344 C8.11364205,7.12841051 10.0085106,8.89561952 10.0085106,8.89561952 Z" id="del" fill="#F6501B" fill-rule="nonzero"></path>
    </g>
</svg>