<?xml version="1.0" encoding="UTF-8"?>
<svg width="45px" height="65px" viewBox="0 0 45 65" version="1.1" xmlns="http://www.w3.org/2000/svg" xmlns:xlink="http://www.w3.org/1999/xlink">
    <!-- Generator: Sketch 50.2 (55047) - http://www.bohemiancoding.com/sketch -->
    <title>microscope</title>
    <desc>Created with Sketch.</desc>
    <defs></defs>
    <g id="Page-1" stroke="none" stroke-width="1" fill="none" fill-rule="evenodd">
        <g id="microscope" fill="#CCCCCC" fill-rule="nonzero">
            <path d="M24.0483508,42.8317901 C24.7904798,42.8317901 25.3976762,42.2299383 25.3976762,41.4943416 L25.3976762,40.872428 C25.3976762,40.1368313 24.7904798,39.5349794 24.0483508,39.5349794 L1.51461769,39.5349794 C0.772488756,39.5349794 0.165292354,40.1368313 0.165292354,40.872428 L0.165292354,41.4943416 C0.165292354,42.2299383 0.772488756,42.8317901 1.51461769,42.8317901 L24.0483508,42.8317901 Z" id="Shape"></path>
            <path d="M38.196027,15.2602881 C36.0775862,13.1604938 33.6150675,11.5154321 30.8624438,10.3585391 L30.8489505,10.3518519 C29.9516492,9.97736626 28.9127361,10.2983539 28.3864318,11.1075103 L26.8212819,13.5216049 C26.42991,13.3878601 26.0116867,13.3076132 25.5799025,13.274177 C25.4517166,13.2674897 25.3167841,13.2608025 25.1818516,13.2608025 C24.8176012,13.2608025 24.46003,13.3009259 24.1158846,13.3744856 L26.8752549,9.10802469 L27.7320765,7.78395062 C28.3324588,6.85442387 28.0625937,5.61059671 27.118066,5.0154321 L19.744003,0.314300412 C19.4066717,0.100308642 19.0288606,0 18.6510495,0 C17.9832009,0 17.3287106,0.327674897 16.9441529,0.922839506 L4.11881559,20.7438272 C3.51836582,21.6733539 3.78823088,22.9171811 4.73275862,23.5123457 L6.12931034,24.401749 L5.49512744,25.3847737 L4.86094453,26.3677984 L4.46289355,26.9830247 C3.86244378,27.9124846 4.13230885,29.1563786 5.07683658,29.7514763 L6.27773613,30.513822 C7.21551724,31.1089866 8.47038981,30.8414969 9.07083958,29.9052829 L9.46889055,29.2900566 L10.103006,28.3070319 L10.7371889,27.3240072 L12.1135007,28.2001029 C12.4508321,28.4140278 12.8286432,28.5143364 13.2063868,28.5143364 C13.8743028,28.5143364 14.5287931,28.1867284 14.9133508,27.5914969 L20.1757196,19.4531224 C20.2836657,19.9346039 20.4590105,20.3893364 20.7019565,20.8106327 C20.9111019,21.1784311 21.1607271,21.5194805 21.4508321,21.8204064 C22.4223463,22.8368673 23.8054048,23.4654681 25.3369565,23.4186574 C28.0423538,23.3384105 30.2416867,21.1583693 30.315967,18.476785 C30.3362069,17.8214352 30.2282609,17.1928344 30.0191154,16.6110442 C31.4291604,17.3733899 32.738006,18.3430401 33.9052399,19.4999331 C37.1166342,22.6830607 38.8842504,26.9093981 38.8842504,31.4099794 C38.8842504,35.9104938 37.1166342,40.1368313 33.9052399,43.3199588 C31.9081709,45.2993827 29.5064393,46.7237654 26.881934,47.5195473 C26.6863493,47.5797325 26.4839505,47.6064815 26.2815517,47.6064815 L19.6428711,47.6064815 C18.522931,47.6064815 17.6188831,46.7104578 17.6188831,45.6003086 L17.6188831,45.1522634 L7.95096702,45.1522634 L7.95096702,47.6064146 L7.95096702,50.7761677 L7.95096702,54.1799743 C8.16011244,54.1665998 8.3760045,54.1598457 8.58508246,54.1598457 L21.8826837,54.1598457 L24.3046552,54.1598457 L35.8616942,54.1598457 L37.4538981,54.1598457 L37.6090705,54.1598457 C39.9164168,53.7519239 41.6772864,51.7524383 41.6772864,49.3450309 C41.6772864,47.8605298 41.0094378,46.5297016 39.9568966,45.6336111 C41.2522489,44.0153652 42.32503,42.2364918 43.1413043,40.3240072 C44.3422039,37.5019907 44.9561469,34.506106 44.9561469,31.4232202 C44.9561469,28.3404012 44.3489505,25.3445833 43.1413043,22.5225 C41.9741379,19.8009259 40.3144678,17.3533951 38.196027,15.2602881 Z M25.1817841,20.1754115 C24.32503,20.1754115 23.6098201,19.6003086 23.4007421,18.811214 C23.3601949,18.6640947 23.3400225,18.5036008 23.3400225,18.343107 C23.3400225,17.4403292 24.0011919,16.691358 24.8715067,16.5442387 C24.9727061,16.524177 25.0806522,16.5174897 25.1885982,16.5174897 C26.2073388,16.5174897 27.0304273,17.3333333 27.0304273,18.343107 C27.0304273,19.3528807 26.2005247,20.1754115 25.1817841,20.1754115 Z M37.4538981,50.9032922 C37.238006,51.0036008 36.9951274,51.0570988 36.7387556,51.0570988 C36.0572789,51.0570988 35.4703223,50.6692387 35.1937781,50.100823 C35.0790855,49.8734568 35.0183658,49.6125874 35.0183658,49.3450977 C35.0183658,48.4021965 35.7874138,47.6331636 36.7455022,47.6331636 C37.0018741,47.6331636 37.2447526,47.6866615 37.4606447,47.7869702 C37.5753373,47.8404681 37.69003,47.9073405 37.7912294,47.9809002 C38.2027736,48.2952006 38.4726387,48.7833693 38.4726387,49.3384105 C38.4658921,50.0406379 38.0476012,50.6358025 37.4538981,50.9032922 Z" id="Shape"></path>
            <path d="M7.95089955,56.5272634 C3.5386057,56.848251 0.0640929535,60.4994856 0.0640929535,64.9531893 L35.42991,64.9531893 C36.5498501,64.9531893 37.4538981,64.0570988 37.4538981,62.9470165 L37.4538981,59.7304527 L37.4538981,56.5072016 L8.58508246,56.5072016 C8.3691904,56.5072016 8.16004498,56.5138889 7.95089955,56.5272634 Z" id="Shape"></path>
        </g>
    </g>
</svg>