<?xml version="1.0" encoding="UTF-8"?>
<svg width="18px" height="18px" viewBox="0 0 18 18" version="1.1" xmlns="http://www.w3.org/2000/svg" xmlns:xlink="http://www.w3.org/1999/xlink">
    <!-- Generator: Sketch 50.2 (55047) - http://www.bohemiancoding.com/sketch -->
    <title>pdf</title>
    <desc>Created with Sketch.</desc>
    <defs></defs>
    <g id="Page-1" stroke="none" stroke-width="1" fill="none" fill-rule="evenodd">
        <path d="M1.87834856,18 C1.3005574,18 0.846573736,17.6675974 0.640205068,17.4598372 C-0.0613935922,16.6288653 -0.0613935922,15.9225357 0.0624139057,15.4654907 C0.144975076,15.0499703 0.392590072,14.6760433 0.764012566,14.4267586 C1.3005574,14.0112381 2.78624737,12.9725749 4.97360453,12.0584851 C6.12918685,9.93949631 6.91334668,8.235959 7.449823,6.86489324 C6.54185567,5.11983147 6.2116795,3.70717228 6.12918685,3.00084268 C6.04662568,2.41915543 6.08794052,1.83746817 6.25299435,1.3388988 C6.66573168,0.0093574948 7.5736305,-0.0322359375 7.94505299,0.0093574948 C8.02761416,0.0093574948 9.47205781,0.217117724 9.7196728,2.29451308 C9.7196728,2.37763097 9.88472663,3.70717228 8.77045915,6.82329981 C9.47205781,8.02819877 10.4625178,9.35780906 11.9895911,10.6458259 C13.4340348,10.6458259 15.0023544,10.7704683 16.6531667,11.1859887 C17.0245892,11.2691066 17.3547654,11.4767978 17.6023804,11.767676 C18.0151177,12.2247209 18.0976104,12.8064081 17.8912417,13.3880954 C17.8912417,13.3880954 17.8086806,13.6789045 17.5610656,13.9697826 C17.1070819,14.5929944 16.2404294,14.8007546 15.5388308,14.4268276 C13.9705796,13.5958556 12.6498749,12.7233592 11.5768538,11.8092694 C9.38949664,11.8923873 7.449823,12.3909567 5.88150334,13.0141684 C5.17990468,14.3021852 4.31325219,15.7148444 3.32272369,17.2936704 C3.11635503,17.5844795 2.86874003,17.8338332 2.53856386,17.9584755 C2.24977106,17.9584066 2.04340239,18 1.87834856,18 Z M3.90058337,13.8035469 C2.66243988,14.468352 1.79578739,15.0500393 1.46561123,15.3408484 C1.34180373,15.4654907 1.21799623,15.5901331 1.21799623,15.7147754 C1.13543506,16.0055846 1.25924256,16.2964627 1.5481724,16.6288653 C1.5481724,16.6288653 1.79578739,16.8366255 2.04340239,16.7535076 C2.12596356,16.7119831 2.20845621,16.6703897 2.24977106,16.5457474 C2.82756222,15.5901331 3.40535338,14.6760433 3.90058337,13.8035469 Z M13.5165959,11.8092004 C14.2594409,12.3077698 15.0848471,12.8479326 15.9928144,13.3049775 C16.1578682,13.3880954 16.3642369,13.346502 16.4880444,13.1803352 C16.6118519,13.0141684 16.6530982,12.889526 16.6530982,12.889526 C16.7356594,12.6817658 16.7356594,12.5987169 16.6118519,12.4740056 C16.5292907,12.3908877 16.4054832,12.3078388 16.2404294,12.2662453 C15.3325306,12.0169606 14.4245633,11.8923183 13.5165959,11.8092004 Z M8.15142166,8.11138564 C7.73868432,9.06699992 7.24345433,10.1472565 6.58317051,11.3937489 C7.69750651,11.0613464 8.89433516,10.7705372 10.2149713,10.6458949 C9.38956515,9.77332952 8.68796649,8.90076414 8.15142166,8.11138564 Z M7.73875284,1.13113857 C7.57369901,1.13113857 7.44989151,1.29730537 7.3260155,1.67130137 C7.202208,2.00370394 7.202208,2.37763097 7.24345433,2.79315143 C7.3260155,3.2917208 7.49106933,4.12269274 7.94505299,5.20294936 C8.56409048,3.20860291 8.48159782,2.37763097 8.48159782,2.37763097 C8.35779033,1.25578092 7.77999916,1.13113857 7.73875284,1.13113857 Z" id="pdf" fill="#E93E29" fill-rule="nonzero"></path>
    </g>
</svg>