<?xml version="1.0" encoding="UTF-8"?>
<svg width="18px" height="16px" viewBox="0 0 18 16" version="1.1" xmlns="http://www.w3.org/2000/svg" xmlns:xlink="http://www.w3.org/1999/xlink">
    <!-- Generator: Sketch 50.2 (55047) - http://www.bohemiancoding.com/sketch -->
    <title>print</title>
    <desc>Created with Sketch.</desc>
    <defs></defs>
    <g id="Page-1" stroke="none" stroke-width="1" fill="none" fill-rule="evenodd">
        <path d="M17.3892749,7.25515807 C16.9816324,6.8626521 16.49306,6.66650856 15.9233683,6.66650856 L15.2312209,6.66650856 L15.2312209,3.99985406 C15.2312209,3.72216648 15.1588538,3.4164584 15.0145365,3.08327709 C14.8703328,2.74994983 14.6973717,2.48609008 14.4955017,2.29162486 L12.8510265,0.708247441 C12.6491565,0.513964646 12.3751468,0.34722805 12.0291488,0.208256563 C11.6829236,0.0694310159 11.3657967,0 11.077162,0 L3.80779575,0 C3.5193126,0 3.27406024,0.0971596403 3.07211446,0.291624861 C2.87028234,0.485980626 2.76923367,0.722111754 2.76923367,0.999945272 L2.76923367,6.66650856 L2.07697261,6.66650856 C1.50724301,6.66650856 1.01867061,6.86276155 0.611141746,7.25515807 C0.203688656,7.64744514 0,8.11795611 0,8.66661802 L0,13.0000547 C0,13.0904646 0.034289106,13.1682142 0.102753653,13.2345075 C0.171293976,13.3003265 0.252451175,13.3332725 0.346111584,13.3332725 L2.76923367,13.3332725 L2.76923367,14.9999088 C2.76923367,15.2778153 2.87016867,15.5139464 3.07211446,15.7083387 C3.27406024,15.9026214 3.5193126,16 3.80779575,16 L14.1923936,16 C14.4807631,16 14.7263564,15.9026214 14.9281128,15.7083387 C15.1299828,15.5138005 15.2309936,15.2778153 15.2309936,14.9999088 L15.2309936,13.3332725 L17.6540778,13.3332725 C17.7477003,13.3332725 17.8288575,13.3003265 17.897322,13.2345075 C17.9657866,13.1682507 17.9999999,13.0904646 17.9999999,13.0000547 L17.9999999,8.66661802 C18.0001515,8.11795611 17.7965386,7.64744514 17.3892749,7.25515807 Z M13.8463199,14.6666545 L4.15394523,14.6666545 L4.15394523,12.000073 L13.8463199,12.000073 L13.8463199,14.6666545 Z M13.8463199,7.99992703 L4.15394523,7.99992703 L4.15394523,1.3333455 L11.077162,1.3333455 L11.077162,2.99994527 C11.077162,3.27774231 11.1782865,3.51376398 11.3799291,3.70826568 C11.5817991,3.9027309 11.8269757,3.99989054 12.1156104,3.99989054 L13.8463199,3.99989054 L13.8463199,7.99992703 Z M16.4101221,9.13530474 C16.273193,9.26716165 16.1108786,9.3333455 15.9233683,9.3333455 C15.735858,9.3333455 15.5735436,9.26719813 15.4365767,9.13530474 C15.2996855,9.00359378 15.2312209,8.84714596 15.2312209,8.66658153 C15.2312209,8.48601711 15.2996855,8.32975172 15.4365767,8.19785833 C15.5735058,8.06589197 15.7358201,7.99989054 15.9233683,7.99989054 C16.1108407,7.99989054 16.2731551,8.06589197 16.4101221,8.19785833 C16.5470133,8.32971523 16.615743,8.48601711 16.615743,8.66658153 C16.615743,8.84714596 16.5471648,9.00359378 16.4101221,9.13530474 Z" id="print" fill="#19B293" fill-rule="nonzero"></path>
    </g>
</svg>